<?xml version="1.0" encoding="UTF-8"?><svg id="Layer_1" xmlns="http://www.w3.org/2000/svg" width="202" height="54" viewBox="0 0 202 54"><defs><style>.cls-1{fill:#ee5087;}.cls-1,.cls-2,.cls-3,.cls-4{stroke-width:0px;}.cls-2{fill:#f5adcb;}.cls-3{fill:#0e4d65;}.cls-4{fill:#f282a3;}</style></defs><path class="cls-4" d="m60.2,2.4c0,2.9-4,4.4-4,4.4,0,0-4-1.5-4-4.4s1-2.2,2.1-2.2,1.4.4,1.8,1.1c.4-.6,1.1-1.1,1.8-1.1,1.2,0,2.1,1,2.1,2.2Z"/><path class="cls-1" d="m60.2,2.4c0,2.9-4,4.4-4,4.4,0,0-.2,0-.4-.2,1-.7,2.9-2.3,2.9-4.1s-2.1-2-2.5-1.3c.4-.6,1.1-1.1,1.8-1.1,1.2,0,2.1,1,2.1,2.2Z"/><path class="cls-2" d="m53.7.9c-.5.2-1,.6-1,1.5s0,.6.1.8l.8-.3c0-.2,0-.3,0-.5,0-.5.2-.8.5-.9l-.4-.7h0Z"/><path class="cls-2" d="m54.3,3.9c-.2-.1-.3-.3-.5-.6l-.8.4c.2.3.4.5.6.7l.7-.5h0Z"/><path class="cls-4" d="m53.3,8.2c0,1.8-2.5,2.7-2.5,2.7,0,0-2.5-.9-2.5-2.7s.6-1.4,1.3-1.4.9.3,1.1.7c.2-.4.7-.7,1.1-.7.7,0,1.3.6,1.3,1.4Z"/><path class="cls-1" d="m53.3,8.2c0,1.8-2.5,2.7-2.5,2.7,0,0-.1,0-.3-.1.6-.4,1.8-1.4,1.8-2.6s-1.3-1.2-1.6-.8c.2-.4.7-.7,1.1-.7.7,0,1.3.6,1.3,1.4Z"/><path class="cls-2" d="m49.3,7.3c-.3.1-.6.4-.6.9s0,.4,0,.5l.5-.2c0,0,0-.2,0-.3,0-.3.1-.5.3-.5l-.2-.4Z"/><path class="cls-2" d="m49.6,9.1c-.1,0-.2-.2-.3-.3l-.5.2c.1.2.2.3.4.5,0,0,.4-.3.4-.3Z"/><path class="cls-3" d="m176.3,18.4v10.6c0,1.9-.5,3.4-1.5,4.4-1,1.1-2.6,1.7-4.7,1.7s-3.4-.5-4.5-1.6c-1.1-1.1-1.6-2.6-1.6-4.5v-10.6h2.4v10.6c0,2.6,1.1,3.7,3.7,3.7s2.3-.3,2.9-.9c.6-.6.9-1.5.9-2.9v-10.6h2.4Z"/><path class="cls-3" d="m201.8,30.5l-4.9-12.1h-1.8l-4.4,12v.2c0,0,0,.2,0,.2.4.5.8.9,1.4,1.1h.4c0,.1.4-.9.4-.9l3-8.3c.8,1.7,3.1,6.8,3.6,8.8,0,0,0,0,0,.2,0,.2,0,.3-.1.5-.3.7-1.4.9-2.1,1.1h-.6c-.3.2-.7.2-1.1.2-.7,0-1.4,0-2.1-.3-.6-.2-1.1-.4-1.6-.7-.5-.3-1-.7-1.4-1.1-.5-.4-.9-.9-1.3-1.3-.6-.6-1.2-1.3-1.9-1.9-.3-.3-.6-.5-1-.7.4-.3.8-.6,1.1-1,.7-.9,1.1-2,1.1-3.2,0-.6-.1-1.3-.4-1.9-.2-.6-.6-1.1-1-1.6-.4-.4-1-.8-1.6-1-.6-.3-1.2-.4-1.9-.4h-5.9v16.7h2.4v-6.9h.8c.7,0,1.4.1,2.1.3.6.2,1.2.5,1.7.8.5.3.9.7,1.4,1.1.4.4.9.8,1.3,1.4.4.4.9.9,1.5,1.4.6.5,1.1,1,1.8,1.4.7.4,1.4.8,2.2,1,.9.2,1.8.4,2.7.4h.1c.8,0,1.6-.1,2.4-.3,1.4-.4,2.9-.9,3.5-2.5.2-.4.3-.8.3-1.3v-.3c0-.3,0-.7-.2-1Zm-16.2-5.4c-.5.5-1.2.7-1.9.7h-3.5v-5h3.5c.7,0,1.3.3,1.8.7.2.2.4.5.5.8.4,1,.2,2.1-.5,2.8Z"/><path class="cls-3" d="m157.6,18.4h-1.5l-7,16.7h2.6l1.7-4h7l1.7,4h2.6l-7-16.7Zm-3.3,10.3l2.5-6,2.5,6h-5Z"/><polygon class="cls-3" points="63.4 20.8 63.4 24.3 70.2 24.3 70.2 26.7 63.4 26.7 63.4 35.1 61.1 35.1 61.1 18.4 71.1 18.4 71.1 20.8 63.4 20.8"/><path class="cls-3" d="m141,27.9c.7-.3,1.4-.7,1.9-1.3.8-.9,1.2-2,1.1-3.2,0-.6-.1-1.3-.4-1.9-.3-.6-.6-1.1-1-1.6-.5-.4-1-.8-1.6-1-.6-.3-1.2-.4-1.9-.4h-6.1v16.7h2.4v-6.9h3.2l3.6,6.9h2.7l-3.7-7.2Zm.6-4.6c0,1.3-.9,2.4-2.2,2.5-.1,0-.2,0-.3,0h-3.7v-5s3.7,0,3.7,0c.3,0,.7,0,1,.2.3.1.6.3.8.5.2.2.4.5.5.8.1.3.2.6.2,1Z"/><polygon class="cls-3" points="123.9 20.8 123.9 24.3 130.6 24.3 130.6 26.7 123.9 26.7 123.9 32.7 131.6 32.7 131.6 35.1 121.5 35.1 121.5 18.4 131.6 18.4 131.6 20.8 123.9 20.8"/><path class="cls-3" d="m120.3,18.4h0s-.2.5-.2.5l-5.8,16.2h-2.1v-.3c-.1,0-4.2-11.6-4.2-11.6l-4.2,11.8h-.3s-1.8,0-1.8,0l-5.2-14.4-.9-2.2h2.6v.2c1.2,2.9,2.3,6,3.4,9,.4,1.1.8,2.2,1.1,3.3l4.5-12.4h1.6l.3.7c0,0,0,0,0,.1l4.1,11.6c.4-1,.7-2.1,1.1-3.2,1-3,2.1-6.1,3.3-9.1v-.2h2.5Z"/><path class="cls-3" d="m35,36.3l-8.8-8.9-8.9,8.9c-3.2,3.6-3.2,8.2-2.9,12.6v.4s3.8-1.8,3.8-1.8l5.2,6.3v-9.7c0-3,0-3.6.2-4.5.3-1.6.8-3.1,1.7-4.5h2c.8,1.4,1.4,2.9,1.7,4.5.2.9.2,1.6.2,4.3v9.9l5.2-6.3,3.8,1.8v-.4c.3-4.4.3-9-2.9-12.6Zm-3.7,11.5c0-.6,0-1.1,0-1.7,0-2.3.1-4.9-.3-6.9-.4-2.2-1.3-4.1-2.6-5.9v-.2c0,0,4.2,4.1,4.2,4.1.6.5,1.1,1.2,1.5,1.9,1.1,2.1,1.7,4.7,1.8,7.2l-2.3-1-2.3,2.6Zm-10-8.7c-.4,2-.4,4.7-.3,7,0,.6,0,1.1,0,1.7l-2.3-2.6-2.3,1c0-2.5.7-5.1,1.7-7.2.4-.7.9-1.3,1.5-1.9l4.1-4.1v.2c-1.2,1.8-2.1,3.7-2.5,5.9Zm5.3-6.2h-.9l-.6-1.5,1.1-.8,1.1.8-.6,1.5Z"/><path class="cls-3" d="m16.8,18.2c-2.6-2.6-6.4-3.8-10-3.2-.4,0-.7.1-1.1.2-.4.1-.8.2-1.2.4-1.8.7-3,1.7-4.4,3l-.2.2,7.5,7.5-7.5,7.5.2.2c1.4,1.4,2.5,2.3,4.4,3,.4.2.8.3,1.2.4.4.1.7.2,1.1.2.6.1,1.2.2,1.9.2,3,0,6-1.3,8.1-3.4l8.1-8.1-8.1-8.1Zm-6.8,9.4c.2-.2.4-.4.7-.6,1.6-1.3,3.5-2,5.5-2,.6,0,1.2,0,1.9.2.9.2,2.3.6,3.2,1.2l-6.4,6.4c-2.1,2-5,2.8-7.9,2.2-.3,0-.6-.1-.9-.2-.8-.3-1.5-.6-2.2-1l6.1-6.1Zm-6.1-8.7c.7-.4,1.4-.8,2.2-1,.3-.1.6-.2.9-.2,2.9-.6,5.8.3,8,2.4l2.4,2.4c-.4,0-.7,0-1.1,0-2.4,0-4.8.8-6.7,2.2l-5.6-5.6Z"/><path class="cls-3" d="m37.5,7.1c0-.4-.1-.7-.2-1.1-.1-.4-.2-.8-.4-1.2-.7-1.8-1.6-3-3-4.4l-.2-.2-7.5,7.5L18.6.2l-.2.2c-1.4,1.4-2.3,2.5-3,4.4-.2.4-.3.8-.4,1.2-.1.4-.2.7-.2,1.1-.1.6-.1,1.2-.1,1.9,0,3,1.2,6.1,3.4,8.1l8.1,8.1,8.1-8.1c2.1-2.1,3.4-5.1,3.4-8.1s0-1.3-.2-1.9Zm-7.4,10.5c0-.4,0-.7,0-1.1,0-2.4-.8-4.8-2.2-6.8l5.6-5.6c.5.7.8,1.4,1,2.2.1.3.2.6.2.9.6,2.9-.3,5.8-2.4,8l-2.4,2.4Zm-2.8.7c-.2.9-.6,2.3-1.2,3.2l-6.4-6.4c-2-2.1-2.8-5-2.2-7.9,0-.3.1-.6.2-.9.2-.8.6-1.5,1-2.2l6.1,6.1c.2.2.4.4.6.7,1.3,1.6,2,3.5,2,5.6s0,1.2-.2,1.8Z"/><path class="cls-3" d="m52.2,18.8l-.2-.2c-1.4-1.4-2.5-2.3-4.4-3-.4-.2-.8-.3-1.2-.4-.4,0-.7-.2-1.1-.2-.6-.1-1.2-.2-1.9-.2-3,0-6.1,1.3-8.1,3.4l-8.1,8.1,8.1,8.1c2.1,2.1,5.1,3.4,8.1,3.4s1.3,0,1.9-.2c.4,0,.7-.1,1.1-.2.4-.1.8-.2,1.2-.4,1.8-.7,3-1.6,4.4-3l.2-.2-7.5-7.5,7.5-7.5Zm-14.8,1c2.1-2,5-2.8,7.9-2.2.3,0,.6.1.9.2.8.3,1.5.6,2.2,1l-6.1,6.1c-.2.2-.4.4-.7.6-1.6,1.3-3.5,2-5.5,2-.6,0-1.2,0-1.9-.2-.9-.2-2.3-.6-3.2-1.2l6.4-6.4Zm-2.6,10.4c.4,0,.7,0,1.1,0,2.4,0,4.8-.8,6.8-2.2l5.6,5.6c-.7.4-1.4.8-2.2,1-.3.1-.6.2-.9.2-2.9.6-5.8-.3-8-2.4l-2.4-2.4Z"/><path class="cls-4" d="m94.3,24.7c0,5.6-7.7,8.5-7.7,8.5,0,0-7.7-2.9-7.7-8.5s1.9-4.3,4.2-4.3,2.8.8,3.6,2.1c.7-1.2,2.1-2.1,3.6-2.1,2.3,0,4.2,1.9,4.2,4.3Z"/><path class="cls-1" d="m94.3,24.7c0,5.6-7.7,8.5-7.7,8.5,0,0-.3-.1-.9-.4,2-1.4,5.7-4.4,5.7-8s-4-3.8-4.8-2.5c.7-1.2,2.1-2.1,3.6-2.1,2.3,0,4.2,1.9,4.2,4.3Z"/><path class="cls-2" d="m81.8,21.7c-.9.3-1.9,1.1-1.9,2.9s0,1.1.2,1.6l1.6-.5c0-.3-.1-.6-.1-1,0-1,.4-1.5.9-1.7l-.7-1.3h0Z"/><path class="cls-2" d="m82.9,27.5c-.3-.3-.7-.6-.9-1.1l-1.5.7c.3.6.7,1.1,1.1,1.4l1.3-1h0Z"/><path class="cls-3" d="m96.1,24.7c0,1.3-.3,2.6-1,3.8-2.2,4.2-7.7,6.3-7.9,6.4l-.6.2h-14.1v-16.7h2.2v14.4h11.8c0,0,.3,0,.4-.1,2.7-1.1,4.8-2.7,6-4.5.8-1.1,1.1-2.3,1.1-3.5,0-2.3-1.8-4.1-3.9-4.1s-1,.1-1.5.3c-.7.3-1.4.9-1.8,1.6l-.2.3-.2-.3c-.4-.6-.9-1.1-1.5-1.5-.9-.5-2-.6-2.9-.3-1.7.5-2.8,2.1-2.8,3.9s0,.7,0,1c.3,1.6,1.2,3,2.7,4.4.9.8,2,1.5,3.1,2.1l.8.4h-4.1c-.8-.6-1.4-1.2-2-1.8-1.7-1.8-2.6-3.9-2.6-6.1,0-3.4,2.7-6.1,5.9-6.1s1.2,0,1.7.3c.6.2,1.2.5,1.8.9.6-.5,1.4-.8,2.2-1,1.1-.3,2.2-.2,3.2.2s1.6.8,2.2,1.4,1.1,1.4,1.4,2.3.4,1.4.4,2.1Z"/></svg>